<?xml version="1.0" encoding="utf-8"?>
<!-- Generator: Adobe Illustrator 28.0.0, SVG Export Plug-In . SVG Version: 6.00 Build 0)  -->
<svg version="1.1" id="Lag_1" xmlns="http://www.w3.org/2000/svg" xmlns:xlink="http://www.w3.org/1999/xlink" x="0px" y="0px"
	 viewBox="0 0 520 520" style="enable-background:new 0 0 520 520;" xml:space="preserve">
<style type="text/css">
	.st0{opacity:0.6;fill:#083B34;enable-background:new    ;}
	.st1{fill:#FFEBB4;}
	.st2{fill:#ECB94A;}
	.st3{opacity:0.6;}
	.st4{fill:#083B34;}
	.st5{fill:#00CBC3;}
	.st6{fill:#48EFE7;}
	.st7{fill:#FFFCF2;}
	.st8{opacity:0.8;fill:#044749;enable-background:new    ;}
	.st9{fill:#FF831F;}
	.st10{fill:#FFB300;}
	.st11{fill:#449C00;}
	.st12{fill:#90CAB3;}
	.st13{opacity:0.6;fill:#044749;enable-background:new    ;}
	.st14{fill:#DAE9B8;}
	.st15{opacity:0.5;fill:#044749;enable-background:new    ;}
	.st16{fill:#F79100;}
</style>
<g>
	<polygon class="st0" points="381.3,68.5 381.3,140.2 311.6,140.2 311.6,44.8 353.9,44.8 356.9,47.4 357.5,47.9 381.2,68.4 	"/>
	<polygon class="st1" points="371.7,65.9 371.7,133.2 302.1,133.2 302.1,42.2 344.3,42.2 347.3,44.8 347.9,45.3 371.6,65.8 	"/>
	<polygon class="st0" points="371.7,65.9 371.7,68.6 353.7,69.4 349.8,69.6 349.5,66.9 347.3,44.8 347.9,45.3 371.6,65.8 	"/>
	<polygon class="st2" points="371.7,65.9 371.6,65.9 350,66.9 349.5,66.9 346.8,67.1 344.3,42.2 347.3,44.8 347.9,45.3 371.6,65.8 	
		"/>
</g>
<g>
	<g class="st3">
		<path class="st4" d="M37.7,131H130c6.2,0,11.2,5,11.2,11.2V194c0,6.2-5,11.2-11.2,11.2H48.9c-6.2,0-11.2-5-11.2-11.2L37.7,131
			L37.7,131L37.7,131z"/>
		<path class="st4" d="M48.9,135.7H130c6.2,0,11.2,5,11.2,11.2v51.8c0,6.2-5,11.2-11.2,11.2H48.9c-6.2,0-11.2-5-11.2-11.2V147
			C37.7,140.8,42.7,135.7,48.9,135.7z"/>
	</g>
	<g>
		<path class="st5" d="M33.1,125h92.3c6.2,0,11.2,5,11.2,11.2V188c0,6.2-5,11.2-11.2,11.2H44.3c-6.2,0-11.2-5-11.2-11.2L33.1,125
			L33.1,125L33.1,125z"/>
		<path class="st6" d="M44.3,129.7h81.1c6.2,0,11.2,5,11.2,11.2v51.8c0,6.2-5,11.2-11.2,11.2H44.3c-6.2,0-11.2-5-11.2-11.2V141
			C33.1,134.8,38.1,129.7,44.3,129.7z"/>
		<path class="st5" d="M75.6,125H33.1v-1.4c0-3.3,2.6-5.9,5.9-5.9h29.3c6.2,0,3.3,5.9,8.4,7.3L75.6,125L75.6,125z"/>
	</g>
</g>
<g>
	<g class="st3">
		<path class="st4" d="M146.1,116.1h330.4c6.2,0,11.2,5,11.2,11.2v219.7c0,6.2-5,11.2-11.2,11.2H146.1c-6.2,0-11.2-5-11.2-11.2
			V127.4C134.9,121.2,139.9,116.1,146.1,116.1z"/>
	</g>
	<g>
		<g>
			<path class="st7" d="M131.5,101.7h330.4c6.2,0,11.2,5,11.2,11.2v219.7c0,6.2-5,11.2-11.2,11.2H131.5c-6.2,0-11.2-5-11.2-11.2
				V112.9C120.3,106.7,125.3,101.7,131.5,101.7z"/>
			<path class="st8" d="M131.5,101.7h330.4c6.2,0,11.2,5,11.2,11.2v24.5H120.3v-24.5C120.3,106.7,125.3,101.7,131.5,101.7
				L131.5,101.7z"/>
			<rect x="141.6" y="113" class="st9" width="13" height="13"/>
			<rect x="162" y="113.1" class="st10" width="13" height="13"/>
			<rect x="182" y="113.1" class="st11" width="13" height="13"/>
			<path class="st12" d="M120.3,265.6c0,0,50.7-52.9,130.3-39.6c60.7,10.2,101.2-2.4,112.1-43c11-40.6,39.4-45.6,39.4-45.6h71v197.7
				c0,4.8-3.9,8.8-8.7,8.8l-335.3,2.9c-4.9,0-8.9-3.9-8.9-8.8L120.3,265.6L120.3,265.6z"/>
		</g>
		<rect x="152.2" y="158.1" class="st13" width="189.4" height="11.6"/>
		<rect x="152.2" y="175.1" class="st13" width="189.4" height="11.6"/>
		<rect x="152.2" y="192.1" class="st13" width="189.4" height="11.6"/>
		<rect x="152.2" y="209.1" class="st13" width="189.4" height="11.6"/>
		<rect x="152.2" y="226.1" class="st13" width="189.4" height="11.6"/>
		<rect x="152.2" y="243.1" class="st13" width="189.4" height="11.6"/>
	</g>
</g>
<g class="st3">
	<path class="st4" d="M51.4,249.6h330.4c6.2,0,11.2,5,11.2,11.2v219.7c0,6.2-5,11.2-11.2,11.2H51.4c-6.2,0-11.2-5-11.2-11.2V260.9
		C40.2,254.6,45.2,249.6,51.4,249.6z"/>
</g>
<g>
	<path class="st7" d="M36.8,235.1h330.4c6.2,0,11.2,5,11.2,11.2v219.7c0,6.2-5,11.2-11.2,11.2H36.8c-6.2,0-11.2-5-11.2-11.2V246.4
		C25.6,240.2,30.6,235.1,36.8,235.1z"/>
	<rect x="114.7" y="270.9" class="st14" width="174.6" height="206.5"/>
	<path class="st8" d="M36.8,235.1h330.4c6.2,0,11.2,5,11.2,11.2v24.5H25.6v-24.5C25.6,240.2,30.6,235.1,36.8,235.1L36.8,235.1z"/>
	<rect x="46.9" y="248.1" class="st9" width="13" height="13"/>
	<rect x="67.3" y="248.2" class="st10" width="13" height="13"/>
	<rect x="87.4" y="248.2" class="st11" width="13" height="13"/>
	<rect x="135.7" y="295.2" class="st15" width="132.6" height="7.1"/>
	<rect x="135.7" y="306.4" class="st15" width="132.6" height="7.1"/>
	<rect x="135.7" y="317.5" class="st15" width="132.6" height="7.1"/>
	<rect x="135.7" y="328.7" class="st15" width="132.6" height="7.1"/>
	<rect x="135.7" y="339.8" class="st15" width="132.6" height="7.1"/>
	<rect x="135.7" y="351" class="st15" width="132.6" height="7.1"/>
	<rect x="135.7" y="373.3" class="st15" width="72.6" height="83.2"/>
	<rect x="216.6" y="377.9" class="st15" width="60.7" height="7.1"/>
	<rect x="216.6" y="389.1" class="st15" width="60.7" height="7.1"/>
	<rect x="216.6" y="400.2" class="st15" width="60.7" height="7.1"/>
	<rect x="216.6" y="411.4" class="st15" width="60.7" height="7.1"/>
	<rect x="216.6" y="422.5" class="st15" width="60.7" height="7.1"/>
	<rect x="216.6" y="433.7" class="st15" width="60.7" height="7.1"/>
	<rect x="216.6" y="444.8" class="st15" width="60.7" height="7.1"/>
</g>
<g>
	<g class="st3">
		<polygon class="st4" points="458.3,191.2 454.9,250.5 476.6,236.4 502,231.3 		"/>
		<polygon class="st4" points="489.8,253.3 479,257.7 465.5,224.6 476.4,220.1 		"/>
	</g>
	<g>
		<polygon class="st16" points="464.1,183.6 460.7,242.9 482.4,228.8 507.8,223.7 		"/>
		<polygon class="st16" points="495.6,245.7 484.8,250.1 471.3,216.9 482.1,212.5 		"/>
	</g>
</g>
<g>
	<polygon class="st0" points="494.6,406.9 494.6,478.6 424.9,478.6 424.9,383.2 467.1,383.2 470.2,385.8 470.7,386.3 494.5,406.8 	
		"/>
	<polygon class="st1" points="485,404.3 485,471.6 415.3,471.6 415.3,380.6 457.6,380.6 460.6,383.2 461.1,383.7 484.9,404.2 	"/>
	<polygon class="st0" points="485,404.3 485,407 467,407.8 463,408 462.8,405.3 460.6,383.2 461.1,383.7 484.9,404.2 	"/>
	<polygon class="st2" points="485,404.3 484.9,404.3 463.3,405.3 462.8,405.3 460,405.5 457.6,380.6 460.6,383.2 461.1,383.7 
		484.9,404.2 	"/>
</g>
</svg>
