<?xml version="1.0" encoding="utf-8"?>
<!-- Generator: Adobe Illustrator 28.0.0, SVG Export Plug-In . SVG Version: 6.00 Build 0)  -->
<svg version="1.1" id="Lag_2_00000054981627816865508160000009629423456327479472_"
	 xmlns="http://www.w3.org/2000/svg" xmlns:xlink="http://www.w3.org/1999/xlink" x="0px" y="0px" viewBox="0 0 828 878.5"
	 style="enable-background:new 0 0 828 878.5;" xml:space="preserve">
<style type="text/css">
	.st0{fill:#1D4648;}
</style>
<path class="st0" d="M150.7,96c0,0,234.2-164.6,453.6-62.8c126.9,58.9,115.4,197.1,114.5,272.6c-1,91-6.4,273.3-2.3,364.2
	c1.2,27.6-1.6,108.9,111.5,72.4c0,0-32.8,133.4-216.8,136.1c-199.8,2.9-183.3-242.8-183.3-242.8V294.4
	C427.9,294.4,447,77.6,150.7,96L150.7,96z"/>
<g>
	<g>
		<path class="st0" d="M11.9,687.3c15.7-34.9,44.3-59.9,77.6-72L9.7,793.2C-3.4,760.2-3.7,722.2,11.9,687.3L11.9,687.3z"/>
		<path class="st0" d="M124.5,607.8c17.6-1.5,35.6,0.5,53.2,6.2L67.2,859.9c-16-9.3-29.4-21.5-40-35.6L124.5,607.8z"/>
		<path class="st0" d="M203.9,625.8c16,9.3,29.4,21.5,40,35.6L146.6,878c-17.6,1.5-35.6-0.5-53.2-6.3L203.9,625.8L203.9,625.8z"/>
		<path class="st0" d="M259.2,798.4c-15.7,34.9-44.3,59.9-77.6,72l79.8-177.8C274.6,725.5,274.9,763.5,259.2,798.4L259.2,798.4z"/>
		<g>
			<path class="st0" d="M114.5,559.9L49.6,704.3l-37.7-16.9l78.2-174.1C84.8,525.1,94.6,542.2,114.5,559.9z"/>
			<path class="st0" d="M137.9,577.9c13.1,8.8,28.2,17.2,44.8,24.8L122.4,737l-46.6-20.9L137.9,577.9L137.9,577.9z"/>
			<path class="st0" d="M258.7,628.5l-63.4,141.2l-46.6-20.9l60.7-135.1C225.9,619.7,242.8,624.8,258.7,628.5L258.7,628.5z"/>
			<path class="st0" d="M337.4,624.3l-78.2,174.1l-37.7-16.9l66.4-147.8C313.5,636.8,332.9,634.4,337.4,624.3L337.4,624.3z"/>
		</g>
	</g>
	<path class="st0" d="M330.2,519.5l-157-70.5l12.4-5.5c15.9-0.9,44.6,6.4,75.3,20.2s55.2,30.4,65.1,42.9L330.2,519.5L330.2,519.5z"
		/>
	<g>
		<path class="st0" d="M326,506.6c-9.9-12.5-34.4-29.1-65.1-42.9s-59.4-21.1-75.3-20.2l105.1-46.4L326,506.6z"/>
		<path class="st0" d="M330.2,519.5c-5.1,11.4-44.4,4.8-87.7-14.7s-74.3-44.5-69.2-55.8L330.2,519.5z"/>
	</g>
</g>
<g>
	<circle class="st0" cx="153.9" cy="230.5" r="80.1"/>
	<path class="st0" d="M78.9,258.8C107.6,351,278.5,312,278.5,312s-41.9-18.5-44.6-85.2"/>
</g>
</svg>
